<svg xmlns="http://www.w3.org/2000/svg" viewBox="0 0 108 108" width="108" height="108">
  <!-- Dark brown circular background -->
  <circle cx="54" cy="54" r="48" fill="#3E2723" />
  <!-- Lizard tail -->
  <path fill="#43A047" d="M28,46 C24,44 20,38 20,32 C20,28 24,26 26,30 C28,36 28,42 30,46 Z" />
  <!-- Lizard body -->
  <path fill="#66BB6A" d="M26,46 C26,36 34,28 46,28 C58,28 64,36 64,46 C64,56 58,62 46,62 C34,62 26,56 26,46 Z" />
  <!-- Lizard belly -->
  <path fill="#A5D6A7" d="M32,48 C32,42 38,36 48,36 C56,36 58,42 58,48 C58,54 56,58 48,58 C38,58 32,54 32,48 Z" />
  <!-- Lizard head -->
  <path fill="#66BB6A" d="M58,28 C60,18 70,14 76,20 C82,26 80,38 72,40 C64,42 56,38 58,28 Z" />
  <!-- Eye white -->
  <path fill="#FFFFFF" d="M72,24 m-4,0 a4,4 0 1,1 8,0 a4,4 0 1,1 -8,0" />
  <!-- Eye pupil -->
  <path fill="#1B5E20" d="M74,24 m-2,0 a2,2 0 1,1 4,0 a2,2 0 1,1 -4,0" />
  <!-- Back leg -->
  <path fill="#43A047" d="M34,58 L30,70 L36,72 L38,60 Z" />
  <!-- Middle leg -->
  <path fill="#43A047" d="M48,60 L46,72 L52,74 L52,62 Z" />
  <!-- Front arm gripping detector -->
  <path fill="#43A047" d="M60,38 L66,42 L68,48 L62,48 L58,44 Z" />
  <!-- Metal detector handle grip -->
  <path fill="#6D4C41" d="M64,38 L62,34 L68,32 L70,36 Z" />
  <!-- Metal detector shaft -->
  <path fill="#BDBDBD" d="M68,46 L76,70 L80,68 L72,44 Z" />
  <!-- Metal detector search coil -->
  <path fill="#9E9E9E" d="M72,72 C70,68 74,66 80,66 C86,66 88,68 86,72 C88,76 84,78 80,78 C74,78 70,76 72,72 Z" />
  <!-- Detection sparkle -->
  <path fill="#FFD54F" d="M84,62 L86,64 L84,66 L82,64 Z" />
  <!-- Detection sparkle small -->
  <path fill="#FFD54F" d="M88,58 L89,59.5 L88,61 L87,59.5 Z" />
</svg>
